<svg xmlns="http://www.w3.org/2000/svg" viewBox="0 0 144 144" width="144" height="144">
<defs>
<clipPath id="cm"><circle cx="72" cy="72" r="72"></circle></clipPath>
<filter id="lb" x="-30%" y="-30%" width="160%" height="160%"><feGaussianBlur stdDeviation="5"></feGaussianBlur></filter>
<filter id="b4" x="-60%" y="-60%" width="220%" height="220%"><feGaussianBlur stdDeviation="4"></feGaussianBlur></filter>
<filter id="b8" x="-60%" y="-60%" width="220%" height="220%"><feGaussianBlur stdDeviation="8"></feGaussianBlur></filter>
<filter id="bs" x="-80%" y="-80%" width="260%" height="260%"><feGaussianBlur stdDeviation="15"></feGaussianBlur></filter>
<clipPath id="g6"><rect x="8" y="2.002" width="127.974" height="139.9"></rect></clipPath>
</defs>
<g clip-path="url(#cm)">
<g filter="url(#lb)">
<rect x="-20" y="-20" width="184" height="184" fill="rgb(16,16,20)"></rect><g clip-path="url(#g6)"><g transform="translate(8 2.002) matrix(1 0 0 -1 11 57.971)"><ellipse cx="52.502" cy="28.985" rx="52.502" ry="28.985" fill="rgb(39,78,231)"></ellipse></g><g transform="translate(8 2.002) matrix(1 0 0 -1 22 57.997)"><ellipse cx="42.207" cy="21.953" rx="42.207" ry="21.953" fill="rgb(61,22,143)"></ellipse></g><g transform="translate(8 2.002) matrix(1 0 0 -1 39 56.702)"><ellipse cx="25.201" cy="12.601" rx="25.201" ry="12.601" fill="rgb(161,249,212)" filter="url(#b4)"></ellipse></g><g transform="translate(8 70.805)"><ellipse cx="63.987" cy="35.548" rx="63.987" ry="35.548" fill="rgb(39,78,231)"></ellipse></g><g transform="translate(21 71.305)"><ellipse cx="51.377" cy="26.721" rx="51.377" ry="26.721" fill="rgb(61,22,143)"></ellipse></g><g transform="translate(42 71.305)"><ellipse cx="29.926" cy="15.751" rx="29.926" ry="15.751" fill="rgb(161,249,212)" filter="url(#b4)"></ellipse></g></g><path fill-rule="evenodd" d="M -80 -80 H 224 V 224 H -80 Z M 72 12 a 72 72 0 1 0 0.01 0 Z" fill="rgb(39,78,231)" filter="url(#bs)"></path>
</g>
</g>
</svg>