<svg xmlns="http://www.w3.org/2000/svg" viewBox="0 0 144 144" width="144" height="144">
<defs>
<clipPath id="cm"><circle cx="72" cy="72" r="72"></circle></clipPath>
<filter id="lb" x="-30%" y="-30%" width="160%" height="160%"><feGaussianBlur stdDeviation="5"></feGaussianBlur></filter>
<filter id="b4" x="-60%" y="-60%" width="220%" height="220%"><feGaussianBlur stdDeviation="4"></feGaussianBlur></filter>
<filter id="b8" x="-60%" y="-60%" width="220%" height="220%"><feGaussianBlur stdDeviation="8"></feGaussianBlur></filter>
<filter id="bs" x="-80%" y="-80%" width="260%" height="260%"><feGaussianBlur stdDeviation="15"></feGaussianBlur></filter>
<clipPath id="g27"><rect x="-23" y="-12" width="199.848" height="167.029"></rect></clipPath>
</defs>
<g clip-path="url(#cm)">
<g filter="url(#lb)">
<rect x="-20" y="-20" width="184" height="184" fill="rgb(16,16,20)"></rect><g clip-path="url(#g27)"><g transform="translate(-23 -12) matrix(-0.707 0.707 0.707 0.707 115.524 0)"><ellipse cx="34.333" cy="59.626" rx="34.333" ry="59.626" fill="rgb(61,22,143)"></ellipse></g><g transform="translate(-23 -12) matrix(-0.69 0.724 0.69 0.724 104.061 1.029)"><ellipse cx="26.856" cy="47.058" rx="26.856" ry="47.058" fill="rgb(20,154,251)"></ellipse></g><g transform="translate(-23 -12) matrix(-0.69 0.724 0.69 0.724 95.785 15.907)"><ellipse cx="14.209" cy="25.489" rx="14.209" ry="25.489" fill="rgb(161,215,253)"></ellipse></g><g transform="translate(-23 -12) matrix(-0.707 0.707 0.707 0.707 51.961 63.029)"><ellipse cx="36.742" cy="36.797" rx="36.742" ry="36.797" fill="rgb(61,22,143)"></ellipse></g><g transform="translate(-23 -12) matrix(-0.707 0.707 0.707 0.707 50.135 65.526)"><ellipse cx="33.615" cy="29.248" rx="33.615" ry="29.248" fill="rgb(20,154,251)"></ellipse></g><g transform="translate(-23 -12) matrix(-0.707 0.707 0.707 0.707 41.421 81.133)"><ellipse cx="17.785" cy="15.843" rx="17.785" ry="15.843" fill="rgb(161,215,253)"></ellipse></g></g><path fill-rule="evenodd" d="M -80 -80 H 224 V 224 H -80 Z M 72 12 a 72 72 0 1 0 0.01 0 Z" fill="rgb(61,22,143)" filter="url(#bs)"></path>
</g>
</g>
</svg>